<mxfile host="app.diagrams.net" modified="2023-02-01T14:50:45.772Z" agent="5.0 (Windows NT 10.0; Win64; x64) AppleWebKit/537.36 (KHTML, like Gecko) Chrome/109.0.0.0 Safari/537.36" etag="LPnUCXofdbmPmlrjxKrD" version="20.8.13" type="github">
  <diagram name="Page-1" id="ErMQx3ynQLDzi9Iqxh45">
    <mxGraphModel dx="4200" dy="2164" grid="1" gridSize="10" guides="1" tooltips="1" connect="1" arrows="1" fold="1" page="1" pageScale="1" pageWidth="1700" pageHeight="1100" background="#ffffff" math="0" shadow="0">
      <root>
        <mxCell id="0" />
        <mxCell id="1" parent="0" />
        <mxCell id="yVTUAOqbUdBhxPRr4Zg2-1" value="person" style="swimlane;fontStyle=1;childLayout=stackLayout;horizontal=1;startSize=26;horizontalStack=0;resizeParent=1;resizeParentMax=0;resizeLast=0;collapsible=1;marginBottom=0;align=center;fontSize=14;fillColor=#fff2cc;strokeColor=#d6b656;strokeWidth=4;" parent="1" vertex="1">
          <mxGeometry x="700" y="60" width="160" height="356" as="geometry" />
        </mxCell>
        <mxCell id="yVTUAOqbUdBhxPRr4Zg2-3" value="person_id" style="text;strokeColor=none;fillColor=none;spacingLeft=4;spacingRight=4;overflow=hidden;rotatable=0;points=[[0,0.5],[1,0.5]];portConstraint=eastwest;fontSize=12;fontStyle=1" parent="yVTUAOqbUdBhxPRr4Zg2-1" vertex="1">
          <mxGeometry y="26" width="160" height="30" as="geometry" />
        </mxCell>
        <mxCell id="Y-0x0eViZNTuThx88ply-29" value="" style="endArrow=none;html=1;rounded=0;shadow=0;fontSize=14;startSize=13;endSize=13;sourcePerimeterSpacing=-14;targetPerimeterSpacing=-7;" edge="1" parent="yVTUAOqbUdBhxPRr4Zg2-1">
          <mxGeometry width="50" height="50" relative="1" as="geometry">
            <mxPoint x="7" y="50" as="sourcePoint" />
            <mxPoint x="63" y="50" as="targetPoint" />
          </mxGeometry>
        </mxCell>
        <mxCell id="yVTUAOqbUdBhxPRr4Zg2-4" value="first_name" style="text;strokeColor=none;fillColor=none;spacingLeft=4;spacingRight=4;overflow=hidden;rotatable=0;points=[[0,0.5],[1,0.5]];portConstraint=eastwest;fontSize=12;strokeWidth=1;fontStyle=1" parent="yVTUAOqbUdBhxPRr4Zg2-1" vertex="1">
          <mxGeometry y="56" width="160" height="30" as="geometry" />
        </mxCell>
        <mxCell id="yVTUAOqbUdBhxPRr4Zg2-7" value="middle_name&#xa;" style="text;strokeColor=none;fillColor=none;spacingLeft=4;spacingRight=4;overflow=hidden;rotatable=0;points=[[0,0.5],[1,0.5]];portConstraint=eastwest;fontSize=12;strokeWidth=1;fontStyle=1" parent="yVTUAOqbUdBhxPRr4Zg2-1" vertex="1">
          <mxGeometry y="86" width="160" height="30" as="geometry" />
        </mxCell>
        <mxCell id="yVTUAOqbUdBhxPRr4Zg2-8" value="last_name" style="text;strokeColor=none;fillColor=none;spacingLeft=4;spacingRight=4;overflow=hidden;rotatable=0;points=[[0,0.5],[1,0.5]];portConstraint=eastwest;fontSize=12;strokeWidth=1;fontStyle=1" parent="yVTUAOqbUdBhxPRr4Zg2-1" vertex="1">
          <mxGeometry y="116" width="160" height="30" as="geometry" />
        </mxCell>
        <mxCell id="yVTUAOqbUdBhxPRr4Zg2-9" value="country_code" style="text;strokeColor=none;fillColor=none;spacingLeft=4;spacingRight=4;overflow=hidden;rotatable=0;points=[[0,0.5],[1,0.5]];portConstraint=eastwest;fontSize=12;strokeWidth=1;fontStyle=1" parent="yVTUAOqbUdBhxPRr4Zg2-1" vertex="1">
          <mxGeometry y="146" width="160" height="30" as="geometry" />
        </mxCell>
        <mxCell id="yVTUAOqbUdBhxPRr4Zg2-10" value="mobile_number" style="text;strokeColor=none;fillColor=none;spacingLeft=4;spacingRight=4;overflow=hidden;rotatable=0;points=[[0,0.5],[1,0.5]];portConstraint=eastwest;fontSize=12;strokeWidth=1;fontStyle=1" parent="yVTUAOqbUdBhxPRr4Zg2-1" vertex="1">
          <mxGeometry y="176" width="160" height="30" as="geometry" />
        </mxCell>
        <mxCell id="yVTUAOqbUdBhxPRr4Zg2-11" value="email_id" style="text;strokeColor=none;fillColor=none;spacingLeft=4;spacingRight=4;overflow=hidden;rotatable=0;points=[[0,0.5],[1,0.5]];portConstraint=eastwest;fontSize=12;strokeWidth=1;fontStyle=1" parent="yVTUAOqbUdBhxPRr4Zg2-1" vertex="1">
          <mxGeometry y="206" width="160" height="30" as="geometry" />
        </mxCell>
        <mxCell id="yVTUAOqbUdBhxPRr4Zg2-12" value="profile_photo" style="text;strokeColor=none;fillColor=none;spacingLeft=4;spacingRight=4;overflow=hidden;rotatable=0;points=[[0,0.5],[1,0.5]];portConstraint=eastwest;fontSize=12;strokeWidth=1;fontStyle=1" parent="yVTUAOqbUdBhxPRr4Zg2-1" vertex="1">
          <mxGeometry y="236" width="160" height="30" as="geometry" />
        </mxCell>
        <mxCell id="yVTUAOqbUdBhxPRr4Zg2-14" value="password" style="text;strokeColor=none;fillColor=none;spacingLeft=4;spacingRight=4;overflow=hidden;rotatable=0;points=[[0,0.5],[1,0.5]];portConstraint=eastwest;fontSize=12;strokeWidth=1;fontStyle=1" parent="yVTUAOqbUdBhxPRr4Zg2-1" vertex="1">
          <mxGeometry y="266" width="160" height="30" as="geometry" />
        </mxCell>
        <mxCell id="yVTUAOqbUdBhxPRr4Zg2-15" value="nationality" style="text;strokeColor=none;fillColor=none;spacingLeft=4;spacingRight=4;overflow=hidden;rotatable=0;points=[[0,0.5],[1,0.5]];portConstraint=eastwest;fontSize=12;strokeWidth=1;fontStyle=1" parent="yVTUAOqbUdBhxPRr4Zg2-1" vertex="1">
          <mxGeometry y="296" width="160" height="30" as="geometry" />
        </mxCell>
        <mxCell id="yVTUAOqbUdBhxPRr4Zg2-117" value="role" style="text;strokeColor=none;fillColor=none;spacingLeft=4;spacingRight=4;overflow=hidden;rotatable=0;points=[[0,0.5],[1,0.5]];portConstraint=eastwest;fontSize=12;strokeWidth=1;fontStyle=1" parent="yVTUAOqbUdBhxPRr4Zg2-1" vertex="1">
          <mxGeometry y="326" width="160" height="30" as="geometry" />
        </mxCell>
        <mxCell id="yVTUAOqbUdBhxPRr4Zg2-18" value="address" style="swimlane;fontStyle=1;childLayout=stackLayout;horizontal=1;startSize=26;horizontalStack=0;resizeParent=1;resizeParentMax=0;resizeLast=0;collapsible=1;marginBottom=0;align=center;fontSize=14;strokeWidth=4;fillColor=#fff2cc;strokeColor=#d6b656;" parent="1" vertex="1">
          <mxGeometry x="1190" y="63" width="160" height="146" as="geometry" />
        </mxCell>
        <mxCell id="yVTUAOqbUdBhxPRr4Zg2-19" value="zip_code" style="text;strokeColor=none;fillColor=none;spacingLeft=4;spacingRight=4;overflow=hidden;rotatable=0;points=[[0,0.5],[1,0.5]];portConstraint=eastwest;fontSize=12;fontStyle=1" parent="yVTUAOqbUdBhxPRr4Zg2-18" vertex="1">
          <mxGeometry y="26" width="160" height="30" as="geometry" />
        </mxCell>
        <mxCell id="Y-0x0eViZNTuThx88ply-44" value="" style="endArrow=none;dashed=1;html=1;dashPattern=1 3;strokeWidth=2;rounded=0;shadow=0;fontSize=14;startSize=13;endSize=13;sourcePerimeterSpacing=-14;targetPerimeterSpacing=-7;" edge="1" parent="yVTUAOqbUdBhxPRr4Zg2-18">
          <mxGeometry width="50" height="50" relative="1" as="geometry">
            <mxPoint x="6" y="50" as="sourcePoint" />
            <mxPoint x="62" y="50" as="targetPoint" />
          </mxGeometry>
        </mxCell>
        <mxCell id="yVTUAOqbUdBhxPRr4Zg2-20" value="city" style="text;strokeColor=none;fillColor=none;spacingLeft=4;spacingRight=4;overflow=hidden;rotatable=0;points=[[0,0.5],[1,0.5]];portConstraint=eastwest;fontSize=12;fontStyle=1" parent="yVTUAOqbUdBhxPRr4Zg2-18" vertex="1">
          <mxGeometry y="56" width="160" height="30" as="geometry" />
        </mxCell>
        <mxCell id="Y-0x0eViZNTuThx88ply-45" value="" style="endArrow=none;dashed=1;html=1;dashPattern=1 3;strokeWidth=2;rounded=0;shadow=0;fontSize=14;startSize=13;endSize=13;sourcePerimeterSpacing=-14;targetPerimeterSpacing=-7;" edge="1" parent="yVTUAOqbUdBhxPRr4Zg2-18">
          <mxGeometry width="50" height="50" relative="1" as="geometry">
            <mxPoint x="6" y="78.99999999999997" as="sourcePoint" />
            <mxPoint x="62" y="78.99999999999997" as="targetPoint" />
          </mxGeometry>
        </mxCell>
        <mxCell id="yVTUAOqbUdBhxPRr4Zg2-21" value="stateÂ " style="text;strokeColor=none;fillColor=none;spacingLeft=4;spacingRight=4;overflow=hidden;rotatable=0;points=[[0,0.5],[1,0.5]];portConstraint=eastwest;fontSize=12;fontStyle=1" parent="yVTUAOqbUdBhxPRr4Zg2-18" vertex="1">
          <mxGeometry y="86" width="160" height="30" as="geometry" />
        </mxCell>
        <mxCell id="Y-0x0eViZNTuThx88ply-46" value="" style="endArrow=none;dashed=1;html=1;dashPattern=1 3;strokeWidth=2;rounded=0;shadow=0;fontSize=14;startSize=13;endSize=13;sourcePerimeterSpacing=-14;targetPerimeterSpacing=-7;" edge="1" parent="yVTUAOqbUdBhxPRr4Zg2-18">
          <mxGeometry width="50" height="50" relative="1" as="geometry">
            <mxPoint x="6" y="107.76999999999998" as="sourcePoint" />
            <mxPoint x="62" y="107.76999999999998" as="targetPoint" />
          </mxGeometry>
        </mxCell>
        <mxCell id="yVTUAOqbUdBhxPRr4Zg2-22" value="address_line" style="text;strokeColor=none;fillColor=none;spacingLeft=4;spacingRight=4;overflow=hidden;rotatable=0;points=[[0,0.5],[1,0.5]];portConstraint=eastwest;fontSize=12;fontStyle=1" parent="yVTUAOqbUdBhxPRr4Zg2-18" vertex="1">
          <mxGeometry y="116" width="160" height="30" as="geometry" />
        </mxCell>
        <mxCell id="Y-0x0eViZNTuThx88ply-47" value="" style="endArrow=none;dashed=1;html=1;dashPattern=1 3;strokeWidth=2;rounded=0;shadow=0;fontSize=14;startSize=13;endSize=13;sourcePerimeterSpacing=-14;targetPerimeterSpacing=-7;" edge="1" parent="yVTUAOqbUdBhxPRr4Zg2-18">
          <mxGeometry width="50" height="50" relative="1" as="geometry">
            <mxPoint x="10" y="139.99999999999997" as="sourcePoint" />
            <mxPoint x="66" y="139.99999999999997" as="targetPoint" />
          </mxGeometry>
        </mxCell>
        <mxCell id="yVTUAOqbUdBhxPRr4Zg2-23" value="student" style="swimlane;fontStyle=1;childLayout=stackLayout;horizontal=1;startSize=26;horizontalStack=0;resizeParent=1;resizeParentMax=0;resizeLast=0;collapsible=1;marginBottom=0;align=center;fontSize=14;strokeWidth=4;fillColor=#f8cecc;strokeColor=#b85450;" parent="1" vertex="1">
          <mxGeometry x="250" y="610" width="160" height="596" as="geometry" />
        </mxCell>
        <mxCell id="yVTUAOqbUdBhxPRr4Zg2-24" value="student_id" style="text;strokeColor=none;fillColor=none;spacingLeft=4;spacingRight=4;overflow=hidden;rotatable=0;points=[[0,0.5],[1,0.5]];portConstraint=eastwest;fontSize=12;fontStyle=1" parent="yVTUAOqbUdBhxPRr4Zg2-23" vertex="1">
          <mxGeometry y="26" width="160" height="30" as="geometry" />
        </mxCell>
        <mxCell id="Y-0x0eViZNTuThx88ply-30" value="" style="endArrow=none;html=1;rounded=0;shadow=0;fontSize=14;startSize=13;endSize=13;sourcePerimeterSpacing=-14;targetPerimeterSpacing=-7;" edge="1" parent="yVTUAOqbUdBhxPRr4Zg2-23">
          <mxGeometry width="50" height="50" relative="1" as="geometry">
            <mxPoint x="4" y="49" as="sourcePoint" />
            <mxPoint x="70" y="49" as="targetPoint" />
          </mxGeometry>
        </mxCell>
        <mxCell id="yVTUAOqbUdBhxPRr4Zg2-116" value="cpi" style="text;strokeColor=none;fillColor=none;spacingLeft=4;spacingRight=4;overflow=hidden;rotatable=0;points=[[0,0.5],[1,0.5]];portConstraint=eastwest;fontSize=12;fontStyle=1" parent="yVTUAOqbUdBhxPRr4Zg2-23" vertex="1">
          <mxGeometry y="56" width="160" height="30" as="geometry" />
        </mxCell>
        <mxCell id="yVTUAOqbUdBhxPRr4Zg2-25" value="backlogs" style="text;strokeColor=none;fillColor=none;spacingLeft=4;spacingRight=4;overflow=hidden;rotatable=0;points=[[0,0.5],[1,0.5]];portConstraint=eastwest;fontSize=12;fontStyle=1" parent="yVTUAOqbUdBhxPRr4Zg2-23" vertex="1">
          <mxGeometry y="86" width="160" height="30" as="geometry" />
        </mxCell>
        <mxCell id="yVTUAOqbUdBhxPRr4Zg2-26" value="category" style="text;strokeColor=none;fillColor=none;spacingLeft=4;spacingRight=4;overflow=hidden;rotatable=0;points=[[0,0.5],[1,0.5]];portConstraint=eastwest;fontSize=12;fontStyle=1" parent="yVTUAOqbUdBhxPRr4Zg2-23" vertex="1">
          <mxGeometry y="116" width="160" height="30" as="geometry" />
        </mxCell>
        <mxCell id="yVTUAOqbUdBhxPRr4Zg2-27" value="jee_rank" style="text;strokeColor=none;fillColor=none;spacingLeft=4;spacingRight=4;overflow=hidden;rotatable=0;points=[[0,0.5],[1,0.5]];portConstraint=eastwest;fontSize=12;fontStyle=1" parent="yVTUAOqbUdBhxPRr4Zg2-23" vertex="1">
          <mxGeometry y="146" width="160" height="30" as="geometry" />
        </mxCell>
        <mxCell id="yVTUAOqbUdBhxPRr4Zg2-28" value="gender" style="text;strokeColor=none;fillColor=none;spacingLeft=4;spacingRight=4;overflow=hidden;rotatable=0;points=[[0,0.5],[1,0.5]];portConstraint=eastwest;fontSize=12;fontStyle=1" parent="yVTUAOqbUdBhxPRr4Zg2-23" vertex="1">
          <mxGeometry y="176" width="160" height="30" as="geometry" />
        </mxCell>
        <mxCell id="yVTUAOqbUdBhxPRr4Zg2-29" value="dob" style="text;strokeColor=none;fillColor=none;spacingLeft=4;spacingRight=4;overflow=hidden;rotatable=0;points=[[0,0.5],[1,0.5]];portConstraint=eastwest;fontSize=12;fontStyle=1" parent="yVTUAOqbUdBhxPRr4Zg2-23" vertex="1">
          <mxGeometry y="206" width="160" height="30" as="geometry" />
        </mxCell>
        <mxCell id="yVTUAOqbUdBhxPRr4Zg2-30" value="professional_experienceÂ " style="text;strokeColor=none;fillColor=none;spacingLeft=4;spacingRight=4;overflow=hidden;rotatable=0;points=[[0,0.5],[1,0.5]];portConstraint=eastwest;fontSize=12;fontStyle=1" parent="yVTUAOqbUdBhxPRr4Zg2-23" vertex="1">
          <mxGeometry y="236" width="160" height="30" as="geometry" />
        </mxCell>
        <mxCell id="yVTUAOqbUdBhxPRr4Zg2-31" value="personal_mail" style="text;strokeColor=none;fillColor=none;spacingLeft=4;spacingRight=4;overflow=hidden;rotatable=0;points=[[0,0.5],[1,0.5]];portConstraint=eastwest;fontSize=12;fontStyle=1" parent="yVTUAOqbUdBhxPRr4Zg2-23" vertex="1">
          <mxGeometry y="266" width="160" height="30" as="geometry" />
        </mxCell>
        <mxCell id="yVTUAOqbUdBhxPRr4Zg2-32" value="year_of_graduation" style="text;strokeColor=none;fillColor=none;spacingLeft=4;spacingRight=4;overflow=hidden;rotatable=0;points=[[0,0.5],[1,0.5]];portConstraint=eastwest;fontSize=12;fontStyle=1" parent="yVTUAOqbUdBhxPRr4Zg2-23" vertex="1">
          <mxGeometry y="296" width="160" height="30" as="geometry" />
        </mxCell>
        <mxCell id="yVTUAOqbUdBhxPRr4Zg2-33" value="board_for_twelfth" style="text;strokeColor=none;fillColor=none;spacingLeft=4;spacingRight=4;overflow=hidden;rotatable=0;points=[[0,0.5],[1,0.5]];portConstraint=eastwest;fontSize=12;fontStyle=1" parent="yVTUAOqbUdBhxPRr4Zg2-23" vertex="1">
          <mxGeometry y="326" width="160" height="30" as="geometry" />
        </mxCell>
        <mxCell id="yVTUAOqbUdBhxPRr4Zg2-34" value="tenth_percentage" style="text;strokeColor=none;fillColor=none;spacingLeft=4;spacingRight=4;overflow=hidden;rotatable=0;points=[[0,0.5],[1,0.5]];portConstraint=eastwest;fontSize=12;fontStyle=1" parent="yVTUAOqbUdBhxPRr4Zg2-23" vertex="1">
          <mxGeometry y="356" width="160" height="30" as="geometry" />
        </mxCell>
        <mxCell id="yVTUAOqbUdBhxPRr4Zg2-35" value="twelfth_percentage" style="text;strokeColor=none;fillColor=none;spacingLeft=4;spacingRight=4;overflow=hidden;rotatable=0;points=[[0,0.5],[1,0.5]];portConstraint=eastwest;fontSize=12;fontStyle=1" parent="yVTUAOqbUdBhxPRr4Zg2-23" vertex="1">
          <mxGeometry y="386" width="160" height="30" as="geometry" />
        </mxCell>
        <mxCell id="yVTUAOqbUdBhxPRr4Zg2-36" value="current_program" style="text;strokeColor=none;fillColor=none;spacingLeft=4;spacingRight=4;overflow=hidden;rotatable=0;points=[[0,0.5],[1,0.5]];portConstraint=eastwest;fontSize=12;fontStyle=1" parent="yVTUAOqbUdBhxPRr4Zg2-23" vertex="1">
          <mxGeometry y="416" width="160" height="30" as="geometry" />
        </mxCell>
        <mxCell id="yVTUAOqbUdBhxPRr4Zg2-37" value="resume" style="text;strokeColor=none;fillColor=none;spacingLeft=4;spacingRight=4;overflow=hidden;rotatable=0;points=[[0,0.5],[1,0.5]];portConstraint=eastwest;fontSize=12;fontStyle=1" parent="yVTUAOqbUdBhxPRr4Zg2-23" vertex="1">
          <mxGeometry y="446" width="160" height="30" as="geometry" />
        </mxCell>
        <mxCell id="yVTUAOqbUdBhxPRr4Zg2-38" value="major_disciplinesÂ " style="text;strokeColor=none;fillColor=none;spacingLeft=4;spacingRight=4;overflow=hidden;rotatable=0;points=[[0,0.5],[1,0.5]];portConstraint=eastwest;fontSize=12;fontStyle=1" parent="yVTUAOqbUdBhxPRr4Zg2-23" vertex="1">
          <mxGeometry y="476" width="160" height="30" as="geometry" />
        </mxCell>
        <mxCell id="yVTUAOqbUdBhxPRr4Zg2-39" value="minor_disciplinesÂ " style="text;strokeColor=none;fillColor=none;spacingLeft=4;spacingRight=4;overflow=hidden;rotatable=0;points=[[0,0.5],[1,0.5]];portConstraint=eastwest;fontSize=12;fontStyle=1" parent="yVTUAOqbUdBhxPRr4Zg2-23" vertex="1">
          <mxGeometry y="506" width="160" height="30" as="geometry" />
        </mxCell>
        <mxCell id="yVTUAOqbUdBhxPRr4Zg2-40" value="board_of_tenth" style="text;strokeColor=none;fillColor=none;spacingLeft=4;spacingRight=4;overflow=hidden;rotatable=0;points=[[0,0.5],[1,0.5]];portConstraint=eastwest;fontSize=12;fontStyle=1" parent="yVTUAOqbUdBhxPRr4Zg2-23" vertex="1">
          <mxGeometry y="536" width="160" height="30" as="geometry" />
        </mxCell>
        <mxCell id="yVTUAOqbUdBhxPRr4Zg2-60" value="date_of_joining" style="text;strokeColor=none;fillColor=none;spacingLeft=4;spacingRight=4;overflow=hidden;rotatable=0;points=[[0,0.5],[1,0.5]];portConstraint=eastwest;fontSize=12;fontStyle=1" parent="yVTUAOqbUdBhxPRr4Zg2-23" vertex="1">
          <mxGeometry y="566" width="160" height="30" as="geometry" />
        </mxCell>
        <mxCell id="yVTUAOqbUdBhxPRr4Zg2-61" value="job_profile" style="swimlane;fontStyle=1;childLayout=stackLayout;horizontal=1;startSize=26;horizontalStack=0;resizeParent=1;resizeParentMax=0;resizeLast=0;collapsible=1;marginBottom=0;align=center;fontSize=14;strokeWidth=4;fillColor=#dae8fc;strokeColor=#6c8ebf;" parent="1" vertex="1">
          <mxGeometry x="651" y="1162" width="250" height="686" as="geometry" />
        </mxCell>
        <mxCell id="yVTUAOqbUdBhxPRr4Zg2-62" value="job_id" style="text;strokeColor=none;fillColor=none;spacingLeft=4;spacingRight=4;overflow=hidden;rotatable=0;points=[[0,0.5],[1,0.5]];portConstraint=eastwest;fontSize=12;strokeWidth=2;fontStyle=1" parent="yVTUAOqbUdBhxPRr4Zg2-61" vertex="1">
          <mxGeometry y="26" width="250" height="30" as="geometry" />
        </mxCell>
        <mxCell id="Y-0x0eViZNTuThx88ply-33" value="" style="endArrow=none;html=1;rounded=0;shadow=0;fontSize=14;startSize=13;endSize=13;sourcePerimeterSpacing=-14;targetPerimeterSpacing=-7;" edge="1" parent="yVTUAOqbUdBhxPRr4Zg2-61">
          <mxGeometry width="50" height="50" relative="1" as="geometry">
            <mxPoint x="5" y="48" as="sourcePoint" />
            <mxPoint x="41" y="48" as="targetPoint" />
          </mxGeometry>
        </mxCell>
        <mxCell id="yVTUAOqbUdBhxPRr4Zg2-63" value="job_designation" style="text;strokeColor=none;fillColor=none;spacingLeft=4;spacingRight=4;overflow=hidden;rotatable=0;points=[[0,0.5],[1,0.5]];portConstraint=eastwest;fontSize=12;fontStyle=1" parent="yVTUAOqbUdBhxPRr4Zg2-61" vertex="1">
          <mxGeometry y="56" width="250" height="30" as="geometry" />
        </mxCell>
        <mxCell id="yVTUAOqbUdBhxPRr4Zg2-64" value="job_description" style="text;strokeColor=none;fillColor=none;spacingLeft=4;spacingRight=4;overflow=hidden;rotatable=0;points=[[0,0.5],[1,0.5]];portConstraint=eastwest;fontSize=12;fontStyle=1" parent="yVTUAOqbUdBhxPRr4Zg2-61" vertex="1">
          <mxGeometry y="86" width="250" height="30" as="geometry" />
        </mxCell>
        <mxCell id="yVTUAOqbUdBhxPRr4Zg2-65" value="location" style="text;strokeColor=none;fillColor=none;spacingLeft=4;spacingRight=4;overflow=hidden;rotatable=0;points=[[0,0.5],[1,0.5]];portConstraint=eastwest;fontSize=12;fontStyle=1" parent="yVTUAOqbUdBhxPRr4Zg2-61" vertex="1">
          <mxGeometry y="116" width="250" height="30" as="geometry" />
        </mxCell>
        <mxCell id="yVTUAOqbUdBhxPRr4Zg2-66" value="service_bond" style="text;strokeColor=none;fillColor=none;spacingLeft=4;spacingRight=4;overflow=hidden;rotatable=0;points=[[0,0.5],[1,0.5]];portConstraint=eastwest;fontSize=12;fontStyle=1" parent="yVTUAOqbUdBhxPRr4Zg2-61" vertex="1">
          <mxGeometry y="146" width="250" height="30" as="geometry" />
        </mxCell>
        <mxCell id="yVTUAOqbUdBhxPRr4Zg2-67" value="terms_and_conditions" style="text;strokeColor=none;fillColor=none;spacingLeft=4;spacingRight=4;overflow=hidden;rotatable=0;points=[[0,0.5],[1,0.5]];portConstraint=eastwest;fontSize=12;fontStyle=1" parent="yVTUAOqbUdBhxPRr4Zg2-61" vertex="1">
          <mxGeometry y="176" width="250" height="30" as="geometry" />
        </mxCell>
        <mxCell id="yVTUAOqbUdBhxPRr4Zg2-68" value="six_month_intern_possibility" style="text;strokeColor=none;fillColor=none;spacingLeft=4;spacingRight=4;overflow=hidden;rotatable=0;points=[[0,0.5],[1,0.5]];portConstraint=eastwest;fontSize=12;fontStyle=1" parent="yVTUAOqbUdBhxPRr4Zg2-61" vertex="1">
          <mxGeometry y="206" width="250" height="30" as="geometry" />
        </mxCell>
        <mxCell id="yVTUAOqbUdBhxPRr4Zg2-69" value="early_onboarding_possibility" style="text;strokeColor=none;fillColor=none;spacingLeft=4;spacingRight=4;overflow=hidden;rotatable=0;points=[[0,0.5],[1,0.5]];portConstraint=eastwest;fontSize=12;fontStyle=1" parent="yVTUAOqbUdBhxPRr4Zg2-61" vertex="1">
          <mxGeometry y="236" width="250" height="30" as="geometry" />
        </mxCell>
        <mxCell id="yVTUAOqbUdBhxPRr4Zg2-70" value="particularly_early_onboarding_required" style="text;strokeColor=none;fillColor=none;spacingLeft=4;spacingRight=4;overflow=hidden;rotatable=0;points=[[0,0.5],[1,0.5]];portConstraint=eastwest;fontSize=12;fontStyle=1" parent="yVTUAOqbUdBhxPRr4Zg2-61" vertex="1">
          <mxGeometry y="266" width="250" height="30" as="geometry" />
        </mxCell>
        <mxCell id="yVTUAOqbUdBhxPRr4Zg2-71" value="early_graduate_students_are_excluded" style="text;strokeColor=none;fillColor=none;spacingLeft=4;spacingRight=4;overflow=hidden;rotatable=0;points=[[0,0.5],[1,0.5]];portConstraint=eastwest;fontSize=12;fontStyle=1" parent="yVTUAOqbUdBhxPRr4Zg2-61" vertex="1">
          <mxGeometry y="296" width="250" height="30" as="geometry" />
        </mxCell>
        <mxCell id="yVTUAOqbUdBhxPRr4Zg2-74" value="current_status" style="text;strokeColor=none;fillColor=none;spacingLeft=4;spacingRight=4;overflow=hidden;rotatable=0;points=[[0,0.5],[1,0.5]];portConstraint=eastwest;fontSize=12;fontStyle=1" parent="yVTUAOqbUdBhxPRr4Zg2-61" vertex="1">
          <mxGeometry y="326" width="250" height="30" as="geometry" />
        </mxCell>
        <mxCell id="yVTUAOqbUdBhxPRr4Zg2-75" value="timeline" style="text;strokeColor=none;fillColor=none;spacingLeft=4;spacingRight=4;overflow=hidden;rotatable=0;points=[[0,0.5],[1,0.5]];portConstraint=eastwest;fontSize=12;fontStyle=1" parent="yVTUAOqbUdBhxPRr4Zg2-61" vertex="1">
          <mxGeometry y="356" width="250" height="30" as="geometry" />
        </mxCell>
        <mxCell id="yVTUAOqbUdBhxPRr4Zg2-87" value="shortlist_from_resume" style="text;strokeColor=none;fillColor=none;spacingLeft=4;spacingRight=4;overflow=hidden;rotatable=0;points=[[0,0.5],[1,0.5]];portConstraint=eastwest;fontSize=12;fontStyle=1" parent="yVTUAOqbUdBhxPRr4Zg2-61" vertex="1">
          <mxGeometry y="386" width="250" height="30" as="geometry" />
        </mxCell>
        <mxCell id="yVTUAOqbUdBhxPRr4Zg2-76" value="eligible_minor_disc" style="text;strokeColor=none;fillColor=none;spacingLeft=4;spacingRight=4;overflow=hidden;rotatable=0;points=[[0,0.5],[1,0.5]];portConstraint=eastwest;fontSize=12;fontStyle=1" parent="yVTUAOqbUdBhxPRr4Zg2-61" vertex="1">
          <mxGeometry y="416" width="250" height="30" as="geometry" />
        </mxCell>
        <mxCell id="Y-0x0eViZNTuThx88ply-36" value="eligible_major_disc" style="text;strokeColor=none;fillColor=none;spacingLeft=4;spacingRight=4;overflow=hidden;rotatable=0;points=[[0,0.5],[1,0.5]];portConstraint=eastwest;fontSize=12;fontStyle=1" vertex="1" parent="yVTUAOqbUdBhxPRr4Zg2-61">
          <mxGeometry y="446" width="250" height="30" as="geometry" />
        </mxCell>
        <mxCell id="yVTUAOqbUdBhxPRr4Zg2-77" value="ppt" style="text;strokeColor=none;fillColor=none;spacingLeft=4;spacingRight=4;overflow=hidden;rotatable=0;points=[[0,0.5],[1,0.5]];portConstraint=eastwest;fontSize=12;fontStyle=1" parent="yVTUAOqbUdBhxPRr4Zg2-61" vertex="1">
          <mxGeometry y="476" width="250" height="30" as="geometry" />
        </mxCell>
        <mxCell id="yVTUAOqbUdBhxPRr4Zg2-78" value="technical_test" style="text;strokeColor=none;fillColor=none;spacingLeft=4;spacingRight=4;overflow=hidden;rotatable=0;points=[[0,0.5],[1,0.5]];portConstraint=eastwest;fontSize=12;fontStyle=1" parent="yVTUAOqbUdBhxPRr4Zg2-61" vertex="1">
          <mxGeometry y="506" width="250" height="30" as="geometry" />
        </mxCell>
        <mxCell id="yVTUAOqbUdBhxPRr4Zg2-79" value="aptitude_test" style="text;strokeColor=none;fillColor=none;spacingLeft=4;spacingRight=4;overflow=hidden;rotatable=0;points=[[0,0.5],[1,0.5]];portConstraint=eastwest;fontSize=12;fontStyle=1" parent="yVTUAOqbUdBhxPRr4Zg2-61" vertex="1">
          <mxGeometry y="536" width="250" height="30" as="geometry" />
        </mxCell>
        <mxCell id="yVTUAOqbUdBhxPRr4Zg2-80" value="psychometric_test" style="text;strokeColor=none;fillColor=none;spacingLeft=4;spacingRight=4;overflow=hidden;rotatable=0;points=[[0,0.5],[1,0.5]];portConstraint=eastwest;fontSize=12;fontStyle=1" parent="yVTUAOqbUdBhxPRr4Zg2-61" vertex="1">
          <mxGeometry y="566" width="250" height="30" as="geometry" />
        </mxCell>
        <mxCell id="yVTUAOqbUdBhxPRr4Zg2-81" value="group_discussion" style="text;strokeColor=none;fillColor=none;spacingLeft=4;spacingRight=4;overflow=hidden;rotatable=0;points=[[0,0.5],[1,0.5]];portConstraint=eastwest;fontSize=12;fontStyle=1" parent="yVTUAOqbUdBhxPRr4Zg2-61" vertex="1">
          <mxGeometry y="596" width="250" height="30" as="geometry" />
        </mxCell>
        <mxCell id="yVTUAOqbUdBhxPRr4Zg2-82" value="technical_interviews" style="text;strokeColor=none;fillColor=none;spacingLeft=4;spacingRight=4;overflow=hidden;rotatable=0;points=[[0,0.5],[1,0.5]];portConstraint=eastwest;fontSize=12;fontStyle=1" parent="yVTUAOqbUdBhxPRr4Zg2-61" vertex="1">
          <mxGeometry y="626" width="250" height="30" as="geometry" />
        </mxCell>
        <mxCell id="yVTUAOqbUdBhxPRr4Zg2-83" value="hr_interviews" style="text;strokeColor=none;fillColor=none;spacingLeft=4;spacingRight=4;overflow=hidden;rotatable=0;points=[[0,0.5],[1,0.5]];portConstraint=eastwest;fontSize=12;fontStyle=1" parent="yVTUAOqbUdBhxPRr4Zg2-61" vertex="1">
          <mxGeometry y="656" width="250" height="30" as="geometry" />
        </mxCell>
        <mxCell id="yVTUAOqbUdBhxPRr4Zg2-88" value="prog_details" style="swimlane;fontStyle=1;childLayout=stackLayout;horizontal=1;startSize=26;horizontalStack=0;resizeParent=1;resizeParentMax=0;resizeLast=0;collapsible=1;marginBottom=0;align=center;fontSize=14;strokeWidth=4;fillColor=#dae8fc;strokeColor=#6c8ebf;" parent="1" vertex="1">
          <mxGeometry x="1325" y="1279" width="160" height="266" as="geometry" />
        </mxCell>
        <mxCell id="Y-0x0eViZNTuThx88ply-37" value="program" style="text;strokeColor=none;fillColor=none;spacingLeft=4;spacingRight=4;overflow=hidden;rotatable=0;points=[[0,0.5],[1,0.5]];portConstraint=eastwest;fontSize=12;fontStyle=1" vertex="1" parent="yVTUAOqbUdBhxPRr4Zg2-88">
          <mxGeometry y="26" width="160" height="30" as="geometry" />
        </mxCell>
        <mxCell id="Y-0x0eViZNTuThx88ply-42" value="" style="endArrow=none;dashed=1;html=1;dashPattern=1 3;strokeWidth=2;rounded=0;shadow=0;fontSize=14;startSize=13;endSize=13;sourcePerimeterSpacing=-14;targetPerimeterSpacing=-7;" edge="1" parent="yVTUAOqbUdBhxPRr4Zg2-88">
          <mxGeometry width="50" height="50" relative="1" as="geometry">
            <mxPoint x="5" y="51" as="sourcePoint" />
            <mxPoint x="65" y="51" as="targetPoint" />
          </mxGeometry>
        </mxCell>
        <mxCell id="yVTUAOqbUdBhxPRr4Zg2-89" value="no_of_pos_available" style="text;strokeColor=none;fillColor=none;spacingLeft=4;spacingRight=4;overflow=hidden;rotatable=0;points=[[0,0.5],[1,0.5]];portConstraint=eastwest;fontSize=12;fontStyle=1" parent="yVTUAOqbUdBhxPRr4Zg2-88" vertex="1">
          <mxGeometry y="56" width="160" height="30" as="geometry" />
        </mxCell>
        <mxCell id="yVTUAOqbUdBhxPRr4Zg2-90" value="basic" style="text;strokeColor=none;fillColor=none;spacingLeft=4;spacingRight=4;overflow=hidden;rotatable=0;points=[[0,0.5],[1,0.5]];portConstraint=eastwest;fontSize=12;fontStyle=1" parent="yVTUAOqbUdBhxPRr4Zg2-88" vertex="1">
          <mxGeometry y="86" width="160" height="30" as="geometry" />
        </mxCell>
        <mxCell id="yVTUAOqbUdBhxPRr4Zg2-91" value="hra" style="text;strokeColor=none;fillColor=none;spacingLeft=4;spacingRight=4;overflow=hidden;rotatable=0;points=[[0,0.5],[1,0.5]];portConstraint=eastwest;fontSize=12;fontStyle=1" parent="yVTUAOqbUdBhxPRr4Zg2-88" vertex="1">
          <mxGeometry y="116" width="160" height="30" as="geometry" />
        </mxCell>
        <mxCell id="yVTUAOqbUdBhxPRr4Zg2-92" value="gross" style="text;strokeColor=none;fillColor=none;spacingLeft=4;spacingRight=4;overflow=hidden;rotatable=0;points=[[0,0.5],[1,0.5]];portConstraint=eastwest;fontSize=12;fontStyle=1" parent="yVTUAOqbUdBhxPRr4Zg2-88" vertex="1">
          <mxGeometry y="146" width="160" height="30" as="geometry" />
        </mxCell>
        <mxCell id="yVTUAOqbUdBhxPRr4Zg2-93" value="other" style="text;strokeColor=none;fillColor=none;spacingLeft=4;spacingRight=4;overflow=hidden;rotatable=0;points=[[0,0.5],[1,0.5]];portConstraint=eastwest;fontSize=12;fontStyle=1" parent="yVTUAOqbUdBhxPRr4Zg2-88" vertex="1">
          <mxGeometry y="176" width="160" height="30" as="geometry" />
        </mxCell>
        <mxCell id="yVTUAOqbUdBhxPRr4Zg2-94" value="take_home" style="text;strokeColor=none;fillColor=none;spacingLeft=4;spacingRight=4;overflow=hidden;rotatable=0;points=[[0,0.5],[1,0.5]];portConstraint=eastwest;fontSize=12;fontStyle=1" parent="yVTUAOqbUdBhxPRr4Zg2-88" vertex="1">
          <mxGeometry y="206" width="160" height="30" as="geometry" />
        </mxCell>
        <mxCell id="yVTUAOqbUdBhxPRr4Zg2-95" value="ctc" style="text;strokeColor=none;fillColor=none;spacingLeft=4;spacingRight=4;overflow=hidden;rotatable=0;points=[[0,0.5],[1,0.5]];portConstraint=eastwest;fontSize=12;fontStyle=1" parent="yVTUAOqbUdBhxPRr4Zg2-88" vertex="1">
          <mxGeometry y="236" width="160" height="30" as="geometry" />
        </mxCell>
        <mxCell id="yVTUAOqbUdBhxPRr4Zg2-97" value="admin" style="swimlane;fontStyle=1;childLayout=stackLayout;horizontal=1;startSize=26;horizontalStack=0;resizeParent=1;resizeParentMax=0;resizeLast=0;collapsible=1;marginBottom=0;align=center;fontSize=14;strokeWidth=4;fillColor=#d5e8d4;strokeColor=#82b366;" parent="1" vertex="1">
          <mxGeometry x="1170" y="610" width="160" height="86" as="geometry" />
        </mxCell>
        <mxCell id="yVTUAOqbUdBhxPRr4Zg2-114" value="admin_id" style="text;strokeColor=none;fillColor=none;spacingLeft=4;spacingRight=4;overflow=hidden;rotatable=0;points=[[0,0.5],[1,0.5]];portConstraint=eastwest;fontSize=12;fontStyle=1" parent="yVTUAOqbUdBhxPRr4Zg2-97" vertex="1">
          <mxGeometry y="26" width="160" height="30" as="geometry" />
        </mxCell>
        <mxCell id="Y-0x0eViZNTuThx88ply-32" value="" style="endArrow=none;html=1;rounded=0;shadow=0;fontSize=14;startSize=13;endSize=13;sourcePerimeterSpacing=-14;targetPerimeterSpacing=-7;" edge="1" parent="yVTUAOqbUdBhxPRr4Zg2-97">
          <mxGeometry width="50" height="50" relative="1" as="geometry">
            <mxPoint x="6" y="49" as="sourcePoint" />
            <mxPoint x="61" y="49" as="targetPoint" />
          </mxGeometry>
        </mxCell>
        <mxCell id="yVTUAOqbUdBhxPRr4Zg2-98" value="designation" style="text;strokeColor=none;fillColor=none;spacingLeft=4;spacingRight=4;overflow=hidden;rotatable=0;points=[[0,0.5],[1,0.5]];portConstraint=eastwest;fontSize=12;fontStyle=1" parent="yVTUAOqbUdBhxPRr4Zg2-97" vertex="1">
          <mxGeometry y="56" width="160" height="30" as="geometry" />
        </mxCell>
        <mxCell id="yVTUAOqbUdBhxPRr4Zg2-101" value="hr_invited" style="swimlane;fontStyle=1;childLayout=stackLayout;horizontal=1;startSize=26;horizontalStack=0;resizeParent=1;resizeParentMax=0;resizeLast=0;collapsible=1;marginBottom=0;align=center;fontSize=14;strokeWidth=4;fillColor=#d5e8d4;strokeColor=#82b366;" parent="1" vertex="1">
          <mxGeometry x="1170" y="950" width="160" height="116" as="geometry" />
        </mxCell>
        <mxCell id="yVTUAOqbUdBhxPRr4Zg2-113" value="email_id" style="text;strokeColor=none;fillColor=none;spacingLeft=4;spacingRight=4;overflow=hidden;rotatable=0;points=[[0,0.5],[1,0.5]];portConstraint=eastwest;fontSize=12;fontStyle=1" parent="yVTUAOqbUdBhxPRr4Zg2-101" vertex="1">
          <mxGeometry y="26" width="160" height="30" as="geometry" />
        </mxCell>
        <mxCell id="Y-0x0eViZNTuThx88ply-34" value="" style="endArrow=none;html=1;rounded=0;shadow=0;fontSize=14;startSize=13;endSize=13;sourcePerimeterSpacing=-14;targetPerimeterSpacing=-7;" edge="1" parent="yVTUAOqbUdBhxPRr4Zg2-101">
          <mxGeometry width="50" height="50" relative="1" as="geometry">
            <mxPoint x="6" y="48" as="sourcePoint" />
            <mxPoint x="56" y="48" as="targetPoint" />
          </mxGeometry>
        </mxCell>
        <mxCell id="yVTUAOqbUdBhxPRr4Zg2-103" value="status" style="text;strokeColor=none;fillColor=none;spacingLeft=4;spacingRight=4;overflow=hidden;rotatable=0;points=[[0,0.5],[1,0.5]];portConstraint=eastwest;fontSize=12;fontStyle=1" parent="yVTUAOqbUdBhxPRr4Zg2-101" vertex="1">
          <mxGeometry y="56" width="160" height="30" as="geometry" />
        </mxCell>
        <mxCell id="yVTUAOqbUdBhxPRr4Zg2-104" value="company_name" style="text;strokeColor=none;fillColor=none;spacingLeft=4;spacingRight=4;overflow=hidden;rotatable=0;points=[[0,0.5],[1,0.5]];portConstraint=eastwest;fontSize=12;fontStyle=1" parent="yVTUAOqbUdBhxPRr4Zg2-101" vertex="1">
          <mxGeometry y="86" width="160" height="30" as="geometry" />
        </mxCell>
        <mxCell id="yVTUAOqbUdBhxPRr4Zg2-105" value="company_details" style="swimlane;fontStyle=1;childLayout=stackLayout;horizontal=1;startSize=26;horizontalStack=0;resizeParent=1;resizeParentMax=0;resizeLast=0;collapsible=1;marginBottom=0;align=center;fontSize=14;strokeWidth=4;fillColor=#dae8fc;strokeColor=#6c8ebf;" parent="1" vertex="1">
          <mxGeometry x="700" y="610" width="160" height="296" as="geometry" />
        </mxCell>
        <mxCell id="yVTUAOqbUdBhxPRr4Zg2-106" value="company_id" style="text;strokeColor=none;fillColor=none;spacingLeft=4;spacingRight=4;overflow=hidden;rotatable=0;points=[[0,0.5],[1,0.5]];portConstraint=eastwest;fontSize=12;fontStyle=1" parent="yVTUAOqbUdBhxPRr4Zg2-105" vertex="1">
          <mxGeometry y="26" width="160" height="30" as="geometry" />
        </mxCell>
        <mxCell id="Y-0x0eViZNTuThx88ply-31" value="" style="endArrow=none;html=1;rounded=0;shadow=0;fontSize=14;startSize=13;endSize=13;sourcePerimeterSpacing=-14;targetPerimeterSpacing=-7;" edge="1" parent="yVTUAOqbUdBhxPRr4Zg2-105">
          <mxGeometry width="50" height="50" relative="1" as="geometry">
            <mxPoint x="7" y="49" as="sourcePoint" />
            <mxPoint x="77" y="49" as="targetPoint" />
          </mxGeometry>
        </mxCell>
        <mxCell id="Y-0x0eViZNTuThx88ply-21" value="company_rep" style="text;strokeColor=none;fillColor=none;spacingLeft=4;spacingRight=4;overflow=hidden;rotatable=0;points=[[0,0.5],[1,0.5]];portConstraint=eastwest;fontSize=12;fontStyle=1" vertex="1" parent="yVTUAOqbUdBhxPRr4Zg2-105">
          <mxGeometry y="56" width="160" height="30" as="geometry" />
        </mxCell>
        <mxCell id="yVTUAOqbUdBhxPRr4Zg2-115" value="company_name" style="text;strokeColor=none;fillColor=none;spacingLeft=4;spacingRight=4;overflow=hidden;rotatable=0;points=[[0,0.5],[1,0.5]];portConstraint=eastwest;fontSize=12;fontStyle=1" parent="yVTUAOqbUdBhxPRr4Zg2-105" vertex="1">
          <mxGeometry y="86" width="160" height="30" as="geometry" />
        </mxCell>
        <mxCell id="yVTUAOqbUdBhxPRr4Zg2-107" value="website" style="text;strokeColor=none;fillColor=none;spacingLeft=4;spacingRight=4;overflow=hidden;rotatable=0;points=[[0,0.5],[1,0.5]];portConstraint=eastwest;fontSize=12;fontStyle=1" parent="yVTUAOqbUdBhxPRr4Zg2-105" vertex="1">
          <mxGeometry y="116" width="160" height="30" as="geometry" />
        </mxCell>
        <mxCell id="yVTUAOqbUdBhxPRr4Zg2-108" value="type_of_org" style="text;strokeColor=none;fillColor=none;spacingLeft=4;spacingRight=4;overflow=hidden;rotatable=0;points=[[0,0.5],[1,0.5]];portConstraint=eastwest;fontSize=12;fontStyle=1" parent="yVTUAOqbUdBhxPRr4Zg2-105" vertex="1">
          <mxGeometry y="146" width="160" height="30" as="geometry" />
        </mxCell>
        <mxCell id="yVTUAOqbUdBhxPRr4Zg2-109" value="industry_sector" style="text;strokeColor=none;fillColor=none;spacingLeft=4;spacingRight=4;overflow=hidden;rotatable=0;points=[[0,0.5],[1,0.5]];portConstraint=eastwest;fontSize=12;fontStyle=1" parent="yVTUAOqbUdBhxPRr4Zg2-105" vertex="1">
          <mxGeometry y="176" width="160" height="30" as="geometry" />
        </mxCell>
        <mxCell id="yVTUAOqbUdBhxPRr4Zg2-110" value="no_of_members" style="text;strokeColor=none;fillColor=none;spacingLeft=4;spacingRight=4;overflow=hidden;rotatable=0;points=[[0,0.5],[1,0.5]];portConstraint=eastwest;fontSize=12;fontStyle=1" parent="yVTUAOqbUdBhxPRr4Zg2-105" vertex="1">
          <mxGeometry y="206" width="160" height="30" as="geometry" />
        </mxCell>
        <mxCell id="yVTUAOqbUdBhxPRr4Zg2-111" value="no_of_rooms_required" style="text;strokeColor=none;fillColor=none;spacingLeft=4;spacingRight=4;overflow=hidden;rotatable=0;points=[[0,0.5],[1,0.5]];portConstraint=eastwest;fontSize=12;fontStyle=1" parent="yVTUAOqbUdBhxPRr4Zg2-105" vertex="1">
          <mxGeometry y="236" width="160" height="30" as="geometry" />
        </mxCell>
        <mxCell id="yVTUAOqbUdBhxPRr4Zg2-112" value="overall_timeline" style="text;strokeColor=none;fillColor=none;spacingLeft=4;spacingRight=4;overflow=hidden;rotatable=0;points=[[0,0.5],[1,0.5]];portConstraint=eastwest;fontSize=12;fontStyle=1" parent="yVTUAOqbUdBhxPRr4Zg2-105" vertex="1">
          <mxGeometry y="266" width="160" height="30" as="geometry" />
        </mxCell>
        <mxCell id="yVTUAOqbUdBhxPRr4Zg2-123" value="" style="endArrow=none;html=1;rounded=0;fontStyle=1" parent="1" edge="1">
          <mxGeometry width="50" height="50" relative="1" as="geometry">
            <mxPoint x="330" y="520" as="sourcePoint" />
            <mxPoint x="1250" y="520" as="targetPoint" />
          </mxGeometry>
        </mxCell>
        <mxCell id="yVTUAOqbUdBhxPRr4Zg2-127" value="" style="endArrow=none;html=1;rounded=0;fontStyle=1" parent="1" source="yVTUAOqbUdBhxPRr4Zg2-23" edge="1">
          <mxGeometry width="50" height="50" relative="1" as="geometry">
            <mxPoint x="470" y="570" as="sourcePoint" />
            <mxPoint x="330" y="520" as="targetPoint" />
          </mxGeometry>
        </mxCell>
        <mxCell id="yVTUAOqbUdBhxPRr4Zg2-128" value="" style="endArrow=none;html=1;rounded=0;exitX=0.5;exitY=0;exitDx=0;exitDy=0;fontStyle=1" parent="1" source="yVTUAOqbUdBhxPRr4Zg2-105" edge="1">
          <mxGeometry width="50" height="50" relative="1" as="geometry">
            <mxPoint x="920" y="590" as="sourcePoint" />
            <mxPoint x="780" y="520" as="targetPoint" />
          </mxGeometry>
        </mxCell>
        <mxCell id="yVTUAOqbUdBhxPRr4Zg2-129" value="" style="endArrow=none;html=1;rounded=0;exitX=0.5;exitY=0;exitDx=0;exitDy=0;fontStyle=1" parent="1" source="yVTUAOqbUdBhxPRr4Zg2-97" edge="1">
          <mxGeometry width="50" height="50" relative="1" as="geometry">
            <mxPoint x="1250" y="600" as="sourcePoint" />
            <mxPoint x="1250" y="520" as="targetPoint" />
          </mxGeometry>
        </mxCell>
        <mxCell id="yVTUAOqbUdBhxPRr4Zg2-130" value="" style="endArrow=classic;html=1;rounded=0;fontStyle=1" parent="1" target="yVTUAOqbUdBhxPRr4Zg2-117" edge="1">
          <mxGeometry width="50" height="50" relative="1" as="geometry">
            <mxPoint x="780" y="520" as="sourcePoint" />
            <mxPoint x="800" y="510" as="targetPoint" />
          </mxGeometry>
        </mxCell>
        <mxCell id="yVTUAOqbUdBhxPRr4Zg2-131" value="applies_to" style="rhombus;whiteSpace=wrap;html=1;strokeWidth=4;fillColor=#f8cecc;strokeColor=#b85450;fontSize=14;fontStyle=1;startSize=26;" parent="1" vertex="1">
          <mxGeometry x="270" y="1360" width="120" height="80" as="geometry" />
        </mxCell>
        <mxCell id="yVTUAOqbUdBhxPRr4Zg2-132" value="" style="endArrow=none;html=1;rounded=0;exitX=0.5;exitY=0;exitDx=0;exitDy=0;fontStyle=1" parent="1" source="yVTUAOqbUdBhxPRr4Zg2-131" target="yVTUAOqbUdBhxPRr4Zg2-60" edge="1">
          <mxGeometry width="50" height="50" relative="1" as="geometry">
            <mxPoint x="720" y="1130" as="sourcePoint" />
            <mxPoint x="320" y="1240" as="targetPoint" />
          </mxGeometry>
        </mxCell>
        <mxCell id="yVTUAOqbUdBhxPRr4Zg2-133" value="" style="endArrow=none;html=1;rounded=0;entryX=0.007;entryY=0.067;entryDx=0;entryDy=0;entryPerimeter=0;fontStyle=1;" parent="1" edge="1">
          <mxGeometry width="50" height="50" relative="1" as="geometry">
            <mxPoint x="390" y="1400" as="sourcePoint" />
            <mxPoint x="649.75" y="1400.01" as="targetPoint" />
          </mxGeometry>
        </mxCell>
        <mxCell id="yVTUAOqbUdBhxPRr4Zg2-134" value="status" style="rounded=0;whiteSpace=wrap;html=1;strokeWidth=4;fillColor=#f8cecc;strokeColor=#b85450;fontSize=14;fontStyle=1;startSize=26;" parent="1" vertex="1">
          <mxGeometry x="30" y="1370" width="120" height="60" as="geometry" />
        </mxCell>
        <mxCell id="yVTUAOqbUdBhxPRr4Zg2-135" value="" style="endArrow=none;dashed=1;html=1;dashPattern=1 3;strokeWidth=2;rounded=0;exitX=1;exitY=0.5;exitDx=0;exitDy=0;entryX=0;entryY=0.5;entryDx=0;entryDy=0;fontStyle=1" parent="1" source="yVTUAOqbUdBhxPRr4Zg2-134" target="yVTUAOqbUdBhxPRr4Zg2-131" edge="1">
          <mxGeometry width="50" height="50" relative="1" as="geometry">
            <mxPoint x="240" y="1320" as="sourcePoint" />
            <mxPoint x="290" y="1270" as="targetPoint" />
          </mxGeometry>
        </mxCell>
        <mxCell id="yVTUAOqbUdBhxPRr4Zg2-136" value="is_protected" style="rounded=0;whiteSpace=wrap;html=1;strokeWidth=4;fillColor=#f8cecc;strokeColor=#b85450;fontSize=14;fontStyle=1;startSize=26;" parent="1" vertex="1">
          <mxGeometry x="270" y="1520" width="120" height="60" as="geometry" />
        </mxCell>
        <mxCell id="yVTUAOqbUdBhxPRr4Zg2-137" value="" style="endArrow=none;dashed=1;html=1;dashPattern=1 3;strokeWidth=2;rounded=0;entryX=0.5;entryY=1;entryDx=0;entryDy=0;exitX=0.5;exitY=0;exitDx=0;exitDy=0;fontStyle=1" parent="1" source="yVTUAOqbUdBhxPRr4Zg2-136" target="yVTUAOqbUdBhxPRr4Zg2-131" edge="1">
          <mxGeometry width="50" height="50" relative="1" as="geometry">
            <mxPoint x="240" y="1510" as="sourcePoint" />
            <mxPoint x="290" y="1460" as="targetPoint" />
          </mxGeometry>
        </mxCell>
        <mxCell id="yVTUAOqbUdBhxPRr4Zg2-138" value="process" style="rhombus;whiteSpace=wrap;html=1;strokeWidth=4;fillColor=#dae8fc;strokeColor=#6c8ebf;fontSize=14;fontStyle=1;startSize=26;" parent="1" vertex="1">
          <mxGeometry x="740" y="990" width="80" height="80" as="geometry" />
        </mxCell>
        <mxCell id="yVTUAOqbUdBhxPRr4Zg2-139" value="" style="endArrow=classic;html=1;rounded=0;exitX=0.5;exitY=0;exitDx=0;exitDy=0;fontStyle=1;shape=link;entryX=0;entryY=0.5;entryDx=0;entryDy=0;" parent="1" source="yVTUAOqbUdBhxPRr4Zg2-138" target="Y-0x0eViZNTuThx88ply-18" edge="1">
          <mxGeometry width="50" height="50" relative="1" as="geometry">
            <mxPoint x="779" y="1030" as="sourcePoint" />
            <mxPoint x="780" y="890" as="targetPoint" />
          </mxGeometry>
        </mxCell>
        <mxCell id="yVTUAOqbUdBhxPRr4Zg2-140" value="" style="endArrow=none;html=1;rounded=0;entryX=0.5;entryY=1.011;entryDx=0;entryDy=0;exitX=0.516;exitY=0;exitDx=0;exitDy=0;exitPerimeter=0;fontStyle=1;shape=link;entryPerimeter=0;" parent="1" source="yVTUAOqbUdBhxPRr4Zg2-61" target="yVTUAOqbUdBhxPRr4Zg2-138" edge="1">
          <mxGeometry width="50" height="50" relative="1" as="geometry">
            <mxPoint x="780.25" y="1162" as="sourcePoint" />
            <mxPoint x="780" y="1070" as="targetPoint" />
          </mxGeometry>
        </mxCell>
        <mxCell id="yVTUAOqbUdBhxPRr4Zg2-143" value="" style="endArrow=none;html=1;rounded=0;exitX=1;exitY=0.5;exitDx=0;exitDy=0;fontStyle=1;shape=link;entryX=-0.026;entryY=0.5;entryDx=0;entryDy=0;entryPerimeter=0;startSize=1;endSize=5;" parent="1" edge="1">
          <mxGeometry width="50" height="50" relative="1" as="geometry">
            <mxPoint x="862" y="131" as="sourcePoint" />
            <mxPoint x="968.8800000000001" y="131" as="targetPoint" />
          </mxGeometry>
        </mxCell>
        <mxCell id="yVTUAOqbUdBhxPRr4Zg2-146" value="" style="endArrow=classic;html=1;rounded=0;exitX=0.5;exitY=0;exitDx=0;exitDy=0;fontStyle=1;" parent="1" source="Y-0x0eViZNTuThx88ply-9" edge="1">
          <mxGeometry width="50" height="50" relative="1" as="geometry">
            <mxPoint x="1250" y="786.54" as="sourcePoint" />
            <mxPoint x="1250" y="696.54" as="targetPoint" />
          </mxGeometry>
        </mxCell>
        <mxCell id="yVTUAOqbUdBhxPRr4Zg2-147" value="" style="endArrow=none;html=1;rounded=0;entryX=0.499;entryY=0.984;entryDx=0;entryDy=0;exitX=0.496;exitY=-0.011;exitDx=0;exitDy=0;fontStyle=1;shape=link;exitPerimeter=0;entryPerimeter=0;" parent="1" source="yVTUAOqbUdBhxPRr4Zg2-101" target="Y-0x0eViZNTuThx88ply-9" edge="1">
          <mxGeometry width="50" height="50" relative="1" as="geometry">
            <mxPoint x="1160" y="940" as="sourcePoint" />
            <mxPoint x="1250" y="860" as="targetPoint" />
          </mxGeometry>
        </mxCell>
        <mxCell id="yVTUAOqbUdBhxPRr4Zg2-149" value="" style="endArrow=classic;html=1;rounded=0;entryX=1;entryY=0.107;entryDx=0;entryDy=0;entryPerimeter=0;exitX=-0.02;exitY=0.5;exitDx=0;exitDy=0;exitPerimeter=0;fontStyle=1;shape=link;" parent="1" edge="1">
          <mxGeometry width="50" height="50" relative="1" as="geometry">
            <mxPoint x="1083.7999999999997" y="1400.0000000000002" as="sourcePoint" />
            <mxPoint x="904" y="1400.21" as="targetPoint" />
          </mxGeometry>
        </mxCell>
        <mxCell id="yVTUAOqbUdBhxPRr4Zg2-150" value="" style="endArrow=none;html=1;rounded=0;entryX=0;entryY=0.175;entryDx=0;entryDy=0;entryPerimeter=0;exitX=1.018;exitY=0.501;exitDx=0;exitDy=0;exitPerimeter=0;fontStyle=1;shape=link;" parent="1" edge="1">
          <mxGeometry width="50" height="50" relative="1" as="geometry">
            <mxPoint x="1191.98" y="1400.0800000000002" as="sourcePoint" />
            <mxPoint x="1328" y="1400.2499999999998" as="targetPoint" />
          </mxGeometry>
        </mxCell>
        <mxCell id="Y-0x0eViZNTuThx88ply-5" value="" style="endArrow=none;html=1;rounded=0;fontStyle=1;startSize=9;endSize=5;sourcePerimeterSpacing=-5;shape=link;entryX=0;entryY=0.5;entryDx=0;entryDy=0;" edge="1" parent="1" target="Y-0x0eViZNTuThx88ply-4">
          <mxGeometry width="50" height="50" relative="1" as="geometry">
            <mxPoint x="1100" y="131" as="sourcePoint" />
            <mxPoint x="1160" y="131" as="targetPoint" />
          </mxGeometry>
        </mxCell>
        <mxCell id="Y-0x0eViZNTuThx88ply-4" value="" style="triangle;whiteSpace=wrap;html=1;strokeWidth=2;fillColor=#000000;" vertex="1" parent="1">
          <mxGeometry x="1167" y="121.5" width="20" height="19" as="geometry" />
        </mxCell>
        <mxCell id="Y-0x0eViZNTuThx88ply-7" style="edgeStyle=none;shape=link;rounded=0;orthogonalLoop=1;jettySize=auto;html=1;startSize=1;endSize=5;sourcePerimeterSpacing=-7;targetPerimeterSpacing=-9;" edge="1" parent="1" source="Y-0x0eViZNTuThx88ply-6">
          <mxGeometry relative="1" as="geometry">
            <mxPoint x="960" y="131" as="targetPoint" />
          </mxGeometry>
        </mxCell>
        <mxCell id="Y-0x0eViZNTuThx88ply-8" style="edgeStyle=none;shape=link;rounded=0;orthogonalLoop=1;jettySize=auto;html=1;startSize=1;endSize=5;sourcePerimeterSpacing=-7;targetPerimeterSpacing=-9;" edge="1" parent="1" source="Y-0x0eViZNTuThx88ply-6">
          <mxGeometry relative="1" as="geometry">
            <mxPoint x="1100" y="131" as="targetPoint" />
          </mxGeometry>
        </mxCell>
        <mxCell id="Y-0x0eViZNTuThx88ply-6" value="&lt;b&gt;located_at&lt;/b&gt;" style="shape=rhombus;double=1;perimeter=rhombusPerimeter;whiteSpace=wrap;html=1;align=center;fillStyle=auto;strokeWidth=2;fillColor=#fff2cc;strokeColor=#d6b656;" vertex="1" parent="1">
          <mxGeometry x="970" y="101" width="120" height="60" as="geometry" />
        </mxCell>
        <mxCell id="Y-0x0eViZNTuThx88ply-9" value="mailed" style="shape=rhombus;double=1;perimeter=rhombusPerimeter;whiteSpace=wrap;html=1;align=center;fillStyle=auto;strokeWidth=2;fillColor=#d5e8d4;strokeColor=#82b366;fontStyle=1" vertex="1" parent="1">
          <mxGeometry x="1190" y="790" width="120" height="60" as="geometry" />
        </mxCell>
        <mxCell id="Y-0x0eViZNTuThx88ply-12" value="var_program" style="shape=rhombus;double=1;perimeter=rhombusPerimeter;whiteSpace=wrap;html=1;align=center;fillStyle=auto;strokeWidth=2;fillColor=#dae8fc;strokeColor=#6c8ebf;fontStyle=1" vertex="1" parent="1">
          <mxGeometry x="1080" y="1370" width="120" height="60" as="geometry" />
        </mxCell>
        <mxCell id="Y-0x0eViZNTuThx88ply-17" value="" style="triangle;whiteSpace=wrap;html=1;strokeWidth=2;fillColor=#000000;flipH=1;" vertex="1" parent="1">
          <mxGeometry x="900" y="1390.5" width="12" height="19" as="geometry" />
        </mxCell>
        <mxCell id="Y-0x0eViZNTuThx88ply-18" value="" style="triangle;whiteSpace=wrap;html=1;strokeWidth=2;fillColor=#000000;direction=north;" vertex="1" parent="1">
          <mxGeometry x="770.5" y="906" width="19" height="12" as="geometry" />
        </mxCell>
        <mxCell id="Y-0x0eViZNTuThx88ply-48" value="" style="endArrow=none;dashed=1;html=1;dashPattern=1 3;strokeWidth=2;rounded=0;shadow=0;fontSize=14;startSize=13;endSize=13;sourcePerimeterSpacing=-14;targetPerimeterSpacing=-7;" edge="1" parent="1">
          <mxGeometry width="50" height="50" relative="1" as="geometry">
            <mxPoint x="1329" y="1388" as="sourcePoint" />
            <mxPoint x="1389" y="1388" as="targetPoint" />
          </mxGeometry>
        </mxCell>
        <mxCell id="Y-0x0eViZNTuThx88ply-49" value="" style="endArrow=none;dashed=1;html=1;dashPattern=1 3;strokeWidth=2;rounded=0;shadow=0;fontSize=14;startSize=13;endSize=13;sourcePerimeterSpacing=-14;targetPerimeterSpacing=-7;" edge="1" parent="1">
          <mxGeometry width="50" height="50" relative="1" as="geometry">
            <mxPoint x="1333" y="1510" as="sourcePoint" />
            <mxPoint x="1393" y="1510" as="targetPoint" />
          </mxGeometry>
        </mxCell>
        <mxCell id="Y-0x0eViZNTuThx88ply-50" value="" style="endArrow=none;dashed=1;html=1;dashPattern=1 3;strokeWidth=2;rounded=0;shadow=0;fontSize=14;startSize=13;endSize=13;sourcePerimeterSpacing=-14;targetPerimeterSpacing=-7;" edge="1" parent="1">
          <mxGeometry width="50" height="50" relative="1" as="geometry">
            <mxPoint x="1331" y="1537" as="sourcePoint" />
            <mxPoint x="1391" y="1537" as="targetPoint" />
          </mxGeometry>
        </mxCell>
      </root>
    </mxGraphModel>
  </diagram>
</mxfile>
